<?xml version="1.0" encoding="utf-8"?>
<!-- Generator: Adobe Illustrator 15.0.0, SVG Export Plug-In . SVG Version: 6.00 Build 0)  -->
<!DOCTYPE svg PUBLIC "-//W3C//DTD SVG 1.1//EN" "http://www.w3.org/Graphics/SVG/1.1/DTD/svg11.dtd">
<svg version="1.1" id="Capa_1" xmlns="http://www.w3.org/2000/svg" xmlns:xlink="http://www.w3.org/1999/xlink" x="0px" y="0px"
	 width="50px" height="50px" viewBox="0 0 50 50" enable-background="new 0 0 50 50" xml:space="preserve">
<path fill="#1D1D1B" d="M45.673,11.367c2.807-2.021,1.771-6.011,1.438-8.758c-0.079-0.666-2.096-0.304-2.452-0.206
	c-3.095,0.848-6.146,2.095-8.465,4.052c-4.903-1.862-11.144-2.491-15.973-0.66c-2.011-1.966-4.716-3.513-7.36-4.698
	C11.586,0.527,9.286,1.012,8.87,2.319c-0.812,2.552-1.136,6.048,0.177,8.559c-0.137,0.113-0.254,0.236-0.323,0.373
	c-3,5.919-4.605,10.649-0.934,16.706c2.546,4.199,7.122,7.004,12.464,7.58c-1.131,1.854-1.156,4.135-1.042,6.184
	c0.001,0.023,0.004,0.055,0.006,0.08c-0.05-0.006-0.098-0.012-0.16-0.018c-0.56-0.131-1.078-0.396-1.568-0.654
	c-1.014-0.535-1.908-1.248-2.78-1.939c-1.619-1.283-3.083-2.705-4.718-3.977c-2.307-1.793-5.904-2.32-8.137-0.027
	c-0.749,0.768,1.067,0.811,2.544,0.504c0.369,0.182,0.705,0.424,1.037,0.65c0.713,0.49,1.358,1.061,2.005,1.613
	c1.472,1.256,2.893,2.547,4.48,3.697c2.269,1.646,4.798,2.336,7.433,1.854c0.12,1.662,0.159,3.754-0.603,4.525
	c0.09-0.021,0.181-0.043,0.271-0.064c-0.509,0.287-0.712,0.562-0.205,0.691c0.046,0.012,0.092,0.025,0.138,0.037
	c1.066,0.271,3.113-0.148,3.852-0.895c1.035-1.049,0.835-3.223,0.905-4.512c0.157-2.916-0.706-6.1,1.152-8.732
	c0.129-0.182-0.213-0.279-0.755-0.299c0.34-0.539,0.126-1.047-1.204-1.119c-5.771-0.312-9.692-4.064-11.872-8.418
	c-2.373-4.737-0.326-8.827,1.897-13.214c0.032-0.063,0.043-0.119,0.064-0.177c0.579-0.322,0.908-0.759,0.64-1.217
	c-0.894-1.523-1.08-3.403-0.895-5.216c1.553,0.927,2.987,2.005,4.113,3.289c0.859,0.981,3.748,0.281,4.254-0.766
	c0.248-0.101,0.486-0.217,0.707-0.345c3.089-1.784,10.085,0.503,12.903,2.015c1.213,0.651,5.113-0.914,4.171-1.42
	c-0.008-0.004-0.018-0.008-0.025-0.013c0.98-1.241,2.393-2.239,3.955-2.961c0.363,2.109,0.947,5.343-0.786,6.507
	c-0.613,0.313-1.006,0.739-0.82,1.194c3.665,8.999,3.522,16.769-6.492,21.964c-1.438-0.574-4.816,0.666-3.733,1.795
	c2.33,2.434,1.174,4.906,0.913,7.707c-0.075,0.807,0.246,2.145,0.188,3.154c-0.583,0.311-0.928,0.721-0.689,1.131
	c0.684,1.178,2.167,1.172,3.469,0.682c1.529-0.574,1.502-1.598,1.502-2.859c0.001-3.293,1.361-6.795-0.146-9.795
	c0.195-0.047,0.381-0.102,0.534-0.176c4.846-2.33,8.811-5.246,10.74-9.853C49.477,21.422,47.497,15.85,45.673,11.367z"/>
</svg>
