<?xml version="1.0" encoding="utf-8"?>
<!-- Generator: Adobe Illustrator 15.0.0, SVG Export Plug-In . SVG Version: 6.00 Build 0)  -->
<!DOCTYPE svg PUBLIC "-//W3C//DTD SVG 1.1//EN" "http://www.w3.org/Graphics/SVG/1.1/DTD/svg11.dtd">
<svg version="1.1" id="Capa_1" xmlns="http://www.w3.org/2000/svg" xmlns:xlink="http://www.w3.org/1999/xlink" x="0px" y="0px"
	 width="50px" height="50px" viewBox="0 0 50 50" enable-background="new 0 0 50 50" xml:space="preserve">
<g>
	<path fill="#1D1D1B" d="M48.717,18.531c-0.183-3.466,0.013-7.837-1.354-11.095c-1.174-2.8-5.094-3.795-7.684-4.542
		c-6.722-1.938-15.315-1.75-22.305-1.271C13.416,1.896,7.715,2.533,5.42,6.234c-2.866,2.501-3.549,6.667-3.778,10.797
		C1.164,25.678,0.558,36.209,2.85,44.595c0.646,2.361,2.707,3.385,4.902,3.887c1.777,0.406,3.743,0.143,5.536-0.021
		c3.442-0.312,6.732-0.167,10.176-0.025c5.158,0.211,10.303-0.017,15.419-0.687c2.926-0.384,5.587-1.014,7.509-3.36
		c1.845-2.252,1.553-7.291,1.764-9.95C48.571,29.195,48.993,23.787,48.717,18.531z M21.373,3.724
		c6.099,0.141,12.677-0.098,18.443,2.093c5.681,2.158,4.648,8.692,5.036,13.749c0.072,0.939,0.111,1.888,0.132,2.842
		c-2.257,0.068-4.533,0.445-6.781,0.159c-0.244-0.031-0.51-0.019-0.775,0.027c-0.663-2.708-2.305-5.067-4.9-6.457
		c0.333,0.098,0.701,0.117,0.959,0.084c2.098-0.267,4.804,0.458,7.104-0.391c2.548-0.94,1.261-5.035,1.214-6.918
		c-0.019-0.769-0.562-1-1.251-1.118c-1.771-0.303-3.55-0.191-5.327,0.002c-0.172,0.019-0.364,0.058-0.559,0.111
		c-1.068-0.393-3.102,0.231-3.26,1.364c-0.29,2.076-0.019,4.123,0.351,6.171c0.03,0.168,0.116,0.304,0.234,0.413
		c-0.363-0.167-0.741-0.318-1.139-0.448c-5.625-1.834-12.704,0.864-15.87,5.777c-0.001,0-0.002,0-0.004,0
		c-2.797,0.569-5.633,0.609-8.473,0.746c-0.408,0.02-0.763,0.137-1.057,0.312c0.002-0.484,0.006-0.97,0.006-1.45
		c-0.004-2.75-0.421-9.239,1.577-12.561c0.747-0.208,1.427-0.59,1.588-1.089c0.074-0.229,0.175-0.437,0.285-0.637
		c0.125-0.054,0.24-0.124,0.374-0.164c1.215-0.359,1.64-1.065,1.432-1.549C13.662,3.224,18.719,3.663,21.373,3.724z M16.988,23.438
		c0.529-0.175,0.994-0.478,1.227-0.916c2.113-3.987,7.317-5.411,11.438-4.067c4.392,1.432,4.632,7.215,3.628,10.852
		C29.959,41.344,12.802,34.393,16.988,23.438z M37.973,10.259c0.05,0.595,0.111,1.189,0.165,1.783
		c0.043,0.489,0.066,0.976,0.064,1.467c-0.001,0.074-0.013,0.146-0.017,0.219c-0.896-0.001-1.801-0.106-2.7-0.144
		c-0.175-1.079-0.302-2.149-0.286-3.232C36.134,10.259,37.049,10.204,37.973,10.259z M38.121,14.38
		C38.069,14.629,38.011,14.568,38.121,14.38L38.121,14.38z M42.799,44.318c-0.762,1.498-5.544,1.589-7.111,1.749
		c-4.178,0.426-8.415,0.291-12.603,0.119c-3.175-0.13-6.107-0.228-9.263,0.158c-4.409,0.539-6.833-0.604-7.573-4.9
		c-0.925-5.377-0.871-11.062-0.818-16.601c0.218,0.06,0.472,0.091,0.775,0.076c2.212-0.107,4.4-0.21,6.581-0.467
		c-1.514,6.206,2.137,12.524,8.836,14.044c7.146,1.624,12.936-1.859,15.375-8.664c0.524-1.465,0.78-2.981,0.774-4.463
		c2.399,0.154,4.81-0.215,7.209-0.247c-0.11,5.25-0.791,10.613-1.304,15.713C43.555,42.062,43.365,43.202,42.799,44.318z"/>
	<path fill="#1D1D1B" d="M29.398,31.073c2.46-1.359,2.786-4.504,2.001-6.928c-0.933-2.875-3.558-4.248-6.451-3.397
		c-0.658-0.291-1.637-0.068-2.199,0.179c-3.281,1.445-5.036,4.895-2.983,8.167C21.807,32.348,26.204,32.837,29.398,31.073z
		 M23.916,22.834c0.517,0.132,1.192,0.034,1.542-0.071c0.042-0.013,0.062-0.021,0.092-0.032c0.007,0.002,0.006,0.005,0.014,0.008
		c0.28,0.099,0.511,0.265,0.732,0.457c0.603,0.526,0.967,1.248,1.238,1.984c0.51,1.38,0.595,3.103-0.236,4.37
		c-0.325,0.497-0.275,0.345-1.008,0.24c-1.18-0.169-2.079-0.995-2.749-1.923C22.523,26.459,22.378,23.895,23.916,22.834z"/>
</g>
</svg>
