<?xml version="1.0" encoding="utf-8"?>
<!-- Generator: Adobe Illustrator 15.0.0, SVG Export Plug-In . SVG Version: 6.00 Build 0)  -->
<!DOCTYPE svg PUBLIC "-//W3C//DTD SVG 1.1//EN" "http://www.w3.org/Graphics/SVG/1.1/DTD/svg11.dtd">
<svg version="1.1" xmlns="http://www.w3.org/2000/svg" xmlns:xlink="http://www.w3.org/1999/xlink" x="0px" y="0px" width="50px"
	 height="50px" viewBox="0 0 50 50" enable-background="new 0 0 50 50" xml:space="preserve">
<g id="menu" display="none">
	<g display="inline">
		<path fill="#1D1D1B" d="M41.44,5.274C29.947,5.303,18.76,8.573,7.273,8.441c-2.224-0.025-6.157,3.316-2.234,3.361
			c11.508,0.132,22.683-3.139,34.167-3.167C41.419,8.63,45.359,5.265,41.44,5.274z"/>
		<path fill="#1D1D1B" d="M44.397,21.397c-5.419,0.842-10.857,0.924-16.317,1.272c-5.84,0.373-11.625,1.464-17.474,0.579
			c-1.777-0.269-6.828,2.587-3.567,3.081c5.614,0.85,11.181,0.309,16.798-0.239c6.587-0.644,13.19-0.559,19.745-1.577
			C46.311,24.089,48.411,20.774,44.397,21.397z"/>
		<path fill="#1D1D1B" d="M42.312,41.432c-4.821,1.609-10.715,0.866-15.687,0.523c-4.901-0.338-10.769,0.116-15.427-1.473
			c-1.33-0.454-6.517,1.678-4.753,2.279c6.05,2.063,13.707,1.478,20.047,1.833c5.984,0.335,12.121,0.127,17.841-1.782
			C48.257,41.503,44.542,40.688,42.312,41.432z"/>
	</g>
</g>
<g id="Capa_2">
	<g>
		<path fill="#1D1D1B" d="M7.061,10.688c11.654-1.822,23.457,0.164,35.166-1c2.968-0.295,4.698-3.943,0.701-3.546
			c-11.712,1.164-23.49-0.825-35.166,1C4.861,7.595,3.08,11.311,7.061,10.688z"/>
		<path fill="#1D1D1B" d="M6.106,25.999c7.635,0.141,15.129-1.374,22.745-1.534c4.658-0.098,9.73,0.559,14.279-0.81
			c1.131-0.34,2.521-0.994,2.476-2.351c-0.002-0.055-0.004-0.11-0.006-0.165c-0.044-1.313-2.486-1.266-4.187-0.429
			c-4.141,0.949-8.845,0.097-13.016,0.319c-6.713,0.358-13.358,1.592-20.096,1.467C5.981,22.454,2.179,25.926,6.106,25.999z"/>
		<path fill="#1D1D1B" d="M41.549,37.726c-4.651,2.286-10.269,2.103-15.327,1.842c-6.049-0.312-12.073-0.74-18.052-1.742
			c-2.831-0.474-5.9,3.527-2.016,4.178c7.162,1.199,14.527,1.806,21.791,1.88c5.508,0.057,11.144-0.314,16.161-2.78
			C47.664,39.354,44.476,36.287,41.549,37.726z"/>
	</g>
</g>
</svg>
